<?xml version="1.0" encoding="iso-8859-1"?>
<!-- Generator: Adobe Illustrator 19.1.0, SVG Export Plug-In . SVG Version: 6.00 Build 0)  -->
<svg xmlns="http://www.w3.org/2000/svg" xmlns:xlink="http://www.w3.org/1999/xlink" version="1.1" id="Capa_1" x="0px" y="0px" viewBox="0 0 37.239 37.239" style="enable-background:new 0 0 37.239 37.239;" xml:space="preserve" width="512px" height="512px">
<g>
	<path d="M18.62,37.239C8.354,37.239,0,28.886,0,18.62S8.354,0,18.62,0S37.239,8.353,37.239,18.62S28.887,37.239,18.62,37.239z    M18.62,0.801c-9.826,0-17.819,7.993-17.819,17.818S8.794,36.438,18.62,36.438c9.825,0,17.818-7.993,17.818-17.818   S28.445,0.801,18.62,0.801z" fill="#7f64b5"/>
	<path d="M18.62,28.704c-5.561,0-10.084-4.523-10.084-10.084S13.06,8.536,18.62,8.536s10.084,4.523,10.084,10.084   S24.181,28.704,18.62,28.704z M18.62,9.336c-5.119,0-9.283,4.164-9.283,9.283s4.164,9.283,9.283,9.283s9.283-4.164,9.283-9.283   S23.739,9.336,18.62,9.336z" fill="#7f64b5"/>
	<path d="M12.537,36.194c-0.044,0-0.09-0.008-0.134-0.023c-0.208-0.073-0.317-0.303-0.243-0.511l2.85-8.046   c0.073-0.208,0.302-0.318,0.511-0.243c0.208,0.073,0.317,0.303,0.243,0.511l-2.85,8.046C12.856,36.091,12.702,36.194,12.537,36.194   z" fill="#7f64b5"/>
	<path d="M21.853,9.892c-0.044,0-0.09-0.008-0.134-0.023c-0.208-0.073-0.317-0.303-0.243-0.511l2.85-8.045   c0.073-0.208,0.302-0.316,0.511-0.243c0.208,0.073,0.317,0.303,0.243,0.511l-2.85,8.045C22.172,9.79,22.018,9.892,21.853,9.892z" fill="#7f64b5"/>
	<path d="M9.492,15.788c-0.044,0-0.09-0.008-0.134-0.023l-8.046-2.85c-0.208-0.073-0.317-0.303-0.243-0.511   c0.073-0.208,0.303-0.317,0.511-0.243l8.046,2.85c0.208,0.073,0.317,0.303,0.243,0.511C9.812,15.685,9.657,15.788,9.492,15.788z" fill="#7f64b5"/>
	<path d="M35.793,25.103c-0.044,0-0.09-0.008-0.134-0.023l-8.045-2.85c-0.208-0.073-0.317-0.303-0.243-0.511   c0.072-0.208,0.303-0.316,0.511-0.243l8.045,2.85c0.208,0.073,0.317,0.303,0.243,0.511C36.112,25,35.958,25.103,35.793,25.103z" fill="#7f64b5"/>
	<path d="M5.967,9.744c-0.075,0-0.151-0.021-0.219-0.065C5.563,9.558,5.511,9.31,5.632,9.125c0.105-0.161,2.638-3.981,7.26-5.528   c0.211-0.073,0.437,0.043,0.506,0.252c0.07,0.21-0.042,0.437-0.252,0.506c-4.36,1.46-6.819,5.171-6.844,5.208   C6.226,9.679,6.097,9.744,5.967,9.744z" fill="#7f64b5"/>
	<path d="M15.248,3.596c-0.109,0-0.21-0.04-0.279-0.11c-0.08-0.07-0.12-0.18-0.12-0.29s0.04-0.21,0.12-0.28   c0.14-0.14,0.41-0.149,0.56,0c0.08,0.08,0.12,0.181,0.12,0.28c0,0.11-0.05,0.21-0.12,0.29C15.448,3.556,15.349,3.596,15.248,3.596z   " fill="#7f64b5"/>
</g>
<g>
</g>
<g>
</g>
<g>
</g>
<g>
</g>
<g>
</g>
<g>
</g>
<g>
</g>
<g>
</g>
<g>
</g>
<g>
</g>
<g>
</g>
<g>
</g>
<g>
</g>
<g>
</g>
<g>
</g>
</svg>
